<svg width="115" height="115" viewBox="0 0 115 115" fill="none" xmlns="http://www.w3.org/2000/svg">
<circle cx="57.5" cy="57.5" r="57.5" fill="white"/>
<circle cx="57.5" cy="57.5" r="56" stroke="black" stroke-opacity="0.3" stroke-width="3"/>
<path d="M94.888 81L84.648 66.6C83.496 66.728 82.3013 66.792 81.064 66.792H69.032V81H64.296V36.2H81.064C86.7813 36.2 91.2613 37.5653 94.504 40.296C97.7467 43.0267 99.368 46.7813 99.368 51.56C99.368 55.0587 98.472 58.024 96.68 60.456C94.9307 62.8453 92.4133 64.5733 89.128 65.64L100.072 81H94.888ZM80.936 62.76C85.3733 62.76 88.7653 61.7787 91.112 59.816C93.4587 57.8533 94.632 55.1013 94.632 51.56C94.632 47.9333 93.4587 45.16 91.112 43.24C88.7653 41.2773 85.3733 40.296 80.936 40.296H69.032V62.76H80.936Z" fill="black"/>
<path d="M30.248 35.616C34.6853 35.616 38.696 36.5973 42.28 38.56C45.8213 40.5227 48.616 43.232 50.664 46.688C52.6693 50.1867 53.672 54.0907 53.672 58.4C53.672 62.7093 52.6693 66.592 50.664 70.048C48.616 73.5467 45.8 76.2773 42.216 78.24C38.632 80.2027 34.6213 81.184 30.184 81.184C26.856 81.184 23.784 80.6293 20.968 79.52C18.152 78.4107 15.7627 76.7893 13.8 74.656L16.808 71.648C20.3067 75.1893 24.7227 76.96 30.056 76.96C33.5973 76.96 36.8187 76.1493 39.72 74.528C42.6213 72.9067 44.904 70.688 46.568 67.872C48.1893 65.056 49 61.8987 49 58.4C49 54.9013 48.1893 51.744 46.568 48.928C44.904 46.112 42.6213 43.8933 39.72 42.272C36.8187 40.6507 33.5973 39.84 30.056 39.84C24.68 39.84 20.264 41.632 16.808 45.216L13.8 42.208C15.7627 40.0747 18.1733 38.432 21.032 37.28C23.848 36.1707 26.92 35.616 30.248 35.616Z" fill="#FF0000"/>
<path d="M30.5 46L33.0819 53.9463H41.4371L34.6776 58.8574L37.2595 66.8037L30.5 61.8926L23.7405 66.8037L26.3224 58.8574L19.5628 53.9463H27.9181L30.5 46Z" fill="black" fill-opacity="0.3"/>
</svg>
