<?xml version="1.0" standalone="no"?>
<!DOCTYPE svg PUBLIC "-//W3C//DTD SVG 20010904//EN"
 "http://www.w3.org/TR/2001/REC-SVG-20010904/DTD/svg10.dtd">
<svg version="1.0" xmlns="http://www.w3.org/2000/svg"
 width="2500.000000pt" height="2500.000000pt" viewBox="0 0 2500.000000 2500.000000"
 preserveAspectRatio="xMidYMid meet">
<metadata>
Created by potrace 1.14, written by Peter Selinger 2001-2017
</metadata>
<g transform="translate(0.000000,2500.000000) scale(0.100000,-0.100000)"
fill="#000000" stroke="none">
<path d="M12109 24055 c-2 -1 -74 -6 -159 -9 -85 -4 -175 -8 -200 -10 -25 -2
-90 -7 -145 -11 -55 -3 -113 -8 -130 -10 -16 -2 -61 -7 -100 -10 -78 -7 -326
-34 -365 -40 -14 -2 -63 -9 -110 -15 -47 -6 -95 -13 -107 -15 -12 -2 -57 -9
-100 -15 -631 -93 -1379 -278 -2033 -504 -252 -87 -650 -242 -820 -319 -30
-13 -91 -40 -135 -60 -157 -68 -533 -252 -712 -348 -245 -131 -659 -373 -730
-425 -17 -13 -34 -24 -37 -24 -12 0 -440 -288 -542 -364 -23 -17 -55 -40 -70
-51 -82 -58 -360 -270 -429 -327 -11 -9 -69 -56 -130 -106 -432 -350 -964
-866 -1335 -1292 -46 -52 -97 -111 -114 -130 -85 -96 -297 -359 -427 -530
-372 -490 -733 -1058 -1016 -1595 -98 -186 -313 -626 -313 -640 0 -2 -13 -32
-29 -67 -16 -35 -59 -135 -95 -223 -37 -88 -75 -180 -86 -205 -10 -25 -48
-124 -84 -220 -287 -779 -480 -1542 -601 -2380 -30 -211 -32 -223 -71 -605 -3
-27 -7 -88 -10 -135 -3 -47 -7 -103 -9 -125 -26 -263 -26 -1276 0 -1510 2 -16
6 -70 10 -120 10 -142 36 -411 50 -525 3 -19 7 -53 10 -75 46 -376 155 -950
250 -1325 424 -1674 1203 -3208 2305 -4538 76 -92 150 -180 165 -197 15 -16
54 -61 88 -100 451 -511 983 -1010 1557 -1461 163 -127 377 -285 560 -410 131
-91 359 -241 422 -279 9 -5 108 -65 220 -132 364 -218 822 -457 1183 -618 83
-36 164 -72 180 -80 80 -36 426 -173 579 -230 553 -204 1169 -378 1731 -489
201 -40 224 -44 325 -61 147 -25 239 -39 315 -49 22 -3 73 -10 113 -16 40 -5
94 -12 120 -15 26 -3 61 -7 77 -10 77 -11 385 -39 540 -50 50 -4 110 -8 135
-10 419 -30 1309 -19 1665 20 22 2 69 7 105 9 101 9 273 26 295 30 11 2 52 7
90 11 173 20 409 55 610 91 11 2 36 7 55 10 19 4 44 8 55 11 11 2 65 12 120
23 211 40 757 168 845 199 14 5 61 19 105 31 421 116 1042 339 1460 525 443
196 846 403 1257 644 467 273 1012 655 1453 1015 94 77 140 116 280 237 11 10
30 26 42 36 32 28 165 148 247 223 97 90 484 477 580 580 43 47 95 103 115
125 167 181 559 656 676 820 11 15 29 39 41 54 21 27 138 188 164 227 8 12 30
44 49 71 456 645 903 1471 1220 2255 190 467 372 1031 497 1533 24 99 47 194
50 210 2 17 7 38 10 47 6 20 4 13 48 228 19 96 38 191 41 210 3 19 8 42 10 50
2 8 6 33 10 55 3 22 12 78 20 125 7 47 16 101 19 120 3 19 12 82 20 140 8 58
17 130 20 160 3 30 8 64 10 75 2 11 7 52 10 90 4 39 9 86 11 105 7 66 17 180
30 350 30 398 35 1145 10 1440 -2 25 -7 92 -10 150 -12 187 -22 298 -46 510
-25 228 -27 236 -64 480 -14 91 -27 176 -30 190 -3 14 -10 52 -16 85 -19 108
-77 398 -94 470 -39 170 -99 408 -127 505 -16 58 -34 121 -38 140 -12 55 -85
288 -144 464 -233 693 -480 1255 -844 1926 -117 215 -368 625 -530 865 -326
482 -693 947 -1072 1359 -588 639 -1267 1232 -1963 1712 -215 149 -651 424
-812 514 -22 12 -85 47 -140 78 -55 30 -131 73 -170 95 -80 45 -550 279 -640
319 -438 192 -620 266 -910 371 -384 138 -752 250 -1120 341 -104 26 -206 51
-225 56 -116 32 -585 121 -860 165 -42 6 -262 36 -305 41 -22 3 -74 9 -115 14
-93 12 -188 21 -345 35 -38 3 -88 8 -110 10 -22 2 -96 7 -165 11 -69 3 -141 8
-160 10 -43 6 -976 14 -981 9z m863 -689 c194 -9 482 -29 593 -41 22 -2 67 -7
100 -10 73 -7 183 -20 335 -41 63 -8 131 -18 150 -20 19 -3 46 -7 60 -9 14 -3
43 -8 65 -11 279 -41 759 -145 1145 -247 375 -100 911 -285 1324 -456 650
-270 1387 -668 1921 -1036 33 -23 98 -68 145 -100 92 -63 262 -186 270 -195 3
-3 50 -39 105 -80 55 -41 107 -80 115 -87 36 -27 375 -307 404 -332 82 -73
152 -136 162 -145 6 -6 46 -42 90 -81 86 -77 475 -463 595 -590 41 -44 124
-136 184 -205 61 -69 115 -130 120 -136 11 -12 15 -17 125 -149 930 -1111
1654 -2477 2064 -3895 86 -300 187 -710 220 -900 3 -19 8 -46 11 -60 3 -14 8
-40 11 -59 3 -18 8 -43 10 -55 2 -11 11 -61 20 -111 8 -49 18 -103 21 -120 3
-16 6 -41 8 -55 1 -14 6 -44 9 -67 4 -23 8 -55 10 -70 20 -148 26 -195 31
-238 3 -27 7 -61 10 -75 2 -14 7 -61 11 -105 3 -44 7 -94 9 -110 1 -17 6 -71
10 -120 4 -50 9 -107 10 -127 27 -328 27 -1169 0 -1478 -3 -30 -7 -87 -10
-125 -4 -69 -10 -133 -20 -227 -3 -27 -7 -72 -10 -100 -3 -29 -8 -69 -10 -88
-3 -19 -7 -53 -10 -75 -12 -100 -56 -402 -60 -415 -2 -8 -7 -35 -10 -60 -4
-25 -10 -63 -15 -85 -5 -22 -11 -58 -14 -80 -8 -51 -14 -82 -20 -103 -3 -9 -8
-33 -11 -52 -3 -19 -24 -116 -46 -215 -22 -99 -42 -189 -45 -200 -3 -17 -75
-287 -104 -390 -120 -437 -342 -1048 -530 -1460 -161 -354 -351 -725 -507
-990 -16 -27 -32 -57 -36 -65 -8 -17 -30 -53 -37 -60 -3 -3 -16 -25 -29 -50
-14 -25 -32 -56 -42 -70 -9 -14 -57 -88 -105 -165 -146 -232 -432 -640 -545
-780 -10 -11 -63 -78 -120 -150 -56 -71 -129 -161 -162 -200 -33 -38 -78 -92
-101 -119 -22 -27 -46 -54 -51 -60 -6 -6 -49 -54 -95 -106 -215 -241 -616
-644 -811 -815 -19 -16 -70 -62 -114 -101 -71 -63 -187 -161 -330 -279 -552
-457 -1291 -935 -1990 -1287 -500 -252 -946 -436 -1514 -624 -123 -41 -233
-76 -245 -79 -11 -2 -43 -11 -71 -20 -79 -25 -357 -100 -499 -134 -219 -53
-479 -108 -691 -146 -67 -11 -282 -46 -315 -50 -19 -3 -46 -7 -60 -9 -14 -3
-47 -8 -75 -11 -27 -3 -63 -8 -80 -10 -43 -6 -105 -13 -225 -25 -58 -6 -121
-13 -140 -15 -40 -4 -186 -17 -245 -20 -50 -3 -300 -16 -380 -20 -85 -5 -734
-5 -830 0 -153 6 -330 16 -370 20 -22 3 -76 7 -120 10 -44 3 -93 8 -110 10
-16 2 -68 6 -115 10 -47 4 -92 9 -100 10 -8 2 -46 6 -85 11 -38 4 -72 8 -75 9
-3 1 -39 5 -80 10 -41 5 -77 9 -80 10 -3 1 -27 5 -55 9 -87 13 -99 15 -125 20
-14 3 -45 8 -70 11 -25 3 -56 7 -70 10 -25 5 -63 12 -111 20 -14 3 -61 12
-105 20 -43 9 -90 18 -104 21 -140 27 -339 72 -550 126 -944 240 -1878 619
-2740 1113 -691 396 -1330 863 -1960 1434 -106 95 -520 507 -620 615 -512 557
-935 1116 -1322 1746 -338 552 -702 1298 -898 1845 -18 50 -36 99 -41 110 -31
70 -162 477 -229 710 -152 529 -287 1206 -340 1705 -6 58 -13 119 -15 135 -2
17 -7 62 -10 100 -3 39 -8 93 -10 120 -8 79 -19 255 -30 490 -7 123 -7 762 -1
840 2 28 7 113 11 190 3 77 8 154 10 170 2 17 7 75 11 130 4 55 8 109 9 120 6
54 16 154 20 185 2 19 7 57 10 85 10 87 45 337 61 435 8 52 17 109 20 125 3
17 7 37 9 45 2 8 6 31 9 50 9 60 73 369 105 505 214 919 559 1831 1001 2650
123 227 123 226 235 415 96 161 119 198 240 385 124 192 496 713 524 735 4 3
20 23 36 45 17 22 32 42 35 45 3 3 21 25 40 50 19 25 45 56 56 70 12 14 79 93
149 175 264 311 567 628 852 892 58 54 120 111 137 127 66 62 377 326 496 421
417 334 948 699 1365 935 822 467 1597 797 2455 1045 276 80 772 199 960 231
14 2 72 13 130 24 173 32 431 71 555 85 28 3 82 10 120 15 39 5 99 12 135 15
36 4 81 8 100 10 203 20 366 31 640 41 91 4 166 7 167 8 6 5 600 -2 725 -8z"/>
<path d="M12347 22134 c-1 -1 -94 -4 -207 -8 -113 -4 -221 -8 -240 -10 -19 -2
-83 -7 -142 -10 -59 -4 -117 -9 -130 -11 -13 -2 -59 -6 -103 -10 -44 -3 -93
-8 -110 -10 -16 -3 -104 -14 -195 -25 -91 -11 -172 -23 -180 -25 -8 -2 -37 -7
-65 -10 -27 -4 -97 -15 -155 -25 -58 -11 -118 -22 -134 -24 -16 -3 -52 -10
-80 -16 -28 -6 -60 -12 -71 -14 -661 -134 -1454 -389 -2018 -650 -43 -20 -81
-36 -83 -36 -3 0 -97 -45 -210 -100 -664 -326 -1271 -712 -1849 -1179 -128
-103 -224 -184 -297 -250 -21 -19 -47 -40 -57 -48 -23 -16 -20 -30 26 -109 17
-27 43 -72 58 -100 46 -82 235 -415 279 -489 22 -38 41 -72 41 -75 0 -3 8 -16
17 -30 9 -14 55 -95 104 -180 48 -85 96 -171 107 -190 11 -19 31 -55 45 -80
13 -25 39 -70 57 -100 18 -30 44 -75 58 -100 33 -60 119 -210 134 -235 7 -11
15 -27 19 -35 9 -17 56 -101 264 -465 79 -137 156 -275 173 -305 17 -30 38
-67 49 -82 10 -14 18 -29 18 -32 0 -2 29 -55 65 -117 36 -61 65 -113 65 -115
0 -2 31 -56 68 -121 38 -65 104 -181 148 -258 43 -77 83 -148 89 -157 5 -9 19
-34 31 -55 12 -21 106 -186 209 -368 103 -181 196 -343 205 -360 47 -83 700
-1232 742 -1304 26 -46 48 -86 48 -88 0 -2 10 -20 23 -41 13 -20 37 -62 54
-92 27 -48 54 -97 132 -232 10 -18 59 -103 107 -189 382 -674 540 -949 544
-949 3 0 31 71 63 158 32 86 62 166 67 177 5 11 127 335 270 720 143 385 265
709 270 720 5 11 16 40 24 65 23 68 65 182 76 205 5 11 59 155 120 320 61 165
115 309 120 320 5 11 74 196 154 410 192 518 397 1070 562 1510 75 198 158
421 185 495 28 74 54 144 59 155 9 23 47 124 119 320 29 77 56 149 61 160 5
11 63 169 130 350 67 182 133 357 145 390 13 33 94 249 180 480 86 231 162
436 170 455 8 19 58 152 110 295 53 143 103 274 111 292 8 17 14 35 14 39 0 5
20 60 44 124 95 246 485 1294 483 1296 -5 6 -145 20 -292 30 -55 3 -116 8
-135 10 -93 9 -754 24 -763 18z"/>
<path d="M15640 21615 c0 -6 104 -285 250 -670 73 -192 139 -367 147 -388 24
-67 303 -811 318 -847 8 -19 105 -276 215 -570 110 -294 204 -544 209 -555 5
-11 40 -101 76 -200 37 -99 77 -207 90 -240 13 -33 60 -159 105 -280 45 -121
97 -258 115 -305 18 -47 56 -146 83 -220 28 -74 114 -304 192 -510 78 -206
188 -499 245 -651 57 -152 109 -287 114 -300 5 -13 22 -58 37 -99 14 -41 32
-88 39 -105 7 -16 63 -165 125 -330 61 -165 122 -327 135 -360 13 -33 110
-289 215 -570 106 -280 224 -593 262 -695 38 -102 82 -219 98 -260 69 -187
381 -1017 389 -1035 13 -32 247 -652 311 -825 46 -124 140 -373 155 -410 8
-19 66 -174 130 -345 64 -170 129 -344 145 -385 16 -41 63 -167 105 -280 42
-113 88 -234 102 -270 14 -36 34 -87 43 -115 10 -27 30 -79 43 -115 14 -36 59
-157 102 -270 42 -113 92 -244 111 -292 19 -49 34 -91 34 -94 0 -3 6 -20 14
-37 8 -18 24 -59 35 -92 12 -33 26 -69 31 -80 4 -11 27 -72 50 -135 23 -63 46
-124 50 -135 5 -11 19 -47 31 -80 11 -33 27 -73 34 -90 7 -16 38 -100 70 -185
31 -85 60 -164 65 -175 5 -11 23 -58 41 -105 70 -190 94 -250 100 -250 12 0
209 361 319 585 119 242 152 313 211 455 22 52 46 109 54 125 8 17 28 66 45
110 17 44 35 89 40 100 37 86 204 575 245 720 9 33 20 71 25 85 7 21 53 188
66 240 2 8 8 33 14 55 16 63 51 208 55 229 3 11 16 74 30 140 14 67 28 132 31
146 2 14 6 36 9 50 10 50 55 316 60 353 3 20 7 54 10 75 15 101 34 254 40 317
3 39 8 81 10 95 2 14 7 61 10 105 3 44 8 96 10 115 27 254 28 1214 0 1460 -2
19 -7 71 -10 115 -4 44 -8 94 -10 110 -5 57 -17 170 -20 195 -5 34 -24 176
-30 225 -3 22 -10 65 -15 95 -5 30 -12 75 -15 100 -3 25 -8 52 -10 60 -2 8 -6
33 -10 55 -22 148 -97 482 -189 845 -36 140 -154 513 -231 730 -110 307 -299
745 -453 1050 -41 80 -91 177 -112 215 -76 142 -103 190 -110 200 -4 6 -22 37
-40 70 -96 176 -342 557 -513 795 -163 227 -409 539 -553 700 -17 19 -71 80
-119 135 -180 203 -489 512 -710 712 -806 725 -1696 1295 -2685 1720 -269 116
-710 282 -710 268z"/>
<path d="M14500 18853 c-18 -48 -43 -115 -55 -148 -13 -33 -58 -154 -100 -270
-43 -115 -84 -225 -92 -244 -8 -18 -16 -39 -18 -45 -1 -6 -5 -18 -8 -26 -3 -8
-22 -60 -42 -115 -20 -55 -41 -109 -46 -120 -9 -19 -46 -121 -95 -255 -12 -36
-35 -96 -49 -135 -15 -38 -44 -117 -65 -175 -22 -58 -62 -166 -90 -240 -51
-134 -78 -207 -160 -430 -23 -63 -55 -149 -71 -190 -16 -41 -92 -246 -170
-455 -77 -209 -176 -474 -219 -590 -43 -115 -121 -325 -173 -465 -164 -441
-299 -803 -393 -1055 -20 -55 -43 -118 -51 -139 -8 -22 -40 -110 -73 -195 -32
-86 -104 -280 -160 -431 -56 -151 -149 -399 -205 -550 -57 -151 -135 -363
-174 -470 -40 -107 -76 -204 -81 -215 -9 -23 -24 -62 -120 -325 -40 -107 -76
-204 -81 -215 -4 -11 -25 -65 -45 -120 -20 -55 -46 -127 -59 -160 -13 -33 -49
-130 -80 -215 -31 -85 -68 -183 -81 -217 -37 -94 -124 -330 -145 -393 -11 -30
-23 -64 -28 -75 -5 -11 -35 -90 -67 -175 -31 -85 -60 -160 -65 -165 -8 -11
-2142 -15 -2153 -4 -4 3 14 61 40 128 l46 122 -53 92 c-28 51 -63 112 -77 137
-14 25 -53 95 -87 155 -34 61 -73 130 -87 155 -14 25 -65 115 -113 200 -49 85
-109 193 -135 240 -26 47 -75 135 -110 195 -34 61 -74 130 -88 155 -14 25 -66
117 -115 205 -50 88 -100 178 -112 200 -18 32 -152 271 -268 475 -11 19 -59
105 -107 190 -48 85 -97 173 -110 195 -12 22 -64 114 -115 205 -51 91 -107
189 -124 218 -17 29 -31 55 -31 57 0 2 -20 38 -46 80 -25 43 -58 100 -73 129
-15 28 -69 125 -121 216 -51 91 -104 184 -117 207 -30 55 -410 727 -436 773
-11 19 -42 76 -70 125 -27 50 -98 176 -158 282 -127 225 -131 231 -219 388
-82 146 -80 142 -220 390 -62 110 -124 220 -138 245 -44 78 -514 913 -535 950
-11 19 -31 55 -45 80 -14 25 -72 128 -130 230 -57 102 -116 205 -129 230 -230
408 -324 574 -327 578 -8 7 -331 -481 -421 -637 -212 -366 -235 -408 -371
-681 -240 -483 -421 -940 -594 -1505 -51 -166 -136 -499 -184 -720 -29 -137
-43 -206 -81 -420 -23 -132 -62 -416 -80 -585 -3 -30 -8 -71 -10 -90 -2 -19
-7 -73 -10 -120 -4 -47 -8 -107 -10 -134 -26 -329 -26 -1197 0 -1356 2 -14 7
-65 10 -115 6 -89 42 -432 49 -470 2 -11 7 -45 11 -75 3 -30 20 -136 36 -235
240 -1453 819 -2840 1686 -4037 105 -145 227 -305 306 -403 45 -55 239 -288
252 -301 5 -6 42 -46 80 -89 237 -266 569 -594 835 -825 52 -46 109 -95 125
-109 56 -50 339 -276 435 -347 166 -124 340 -247 344 -243 3 4 78 200 236 624
39 105 75 199 80 210 9 19 121 316 236 625 30 80 58 154 63 165 5 11 46 119
92 240 45 121 113 301 151 400 38 99 71 187 73 195 2 8 28 77 56 153 l52 137
46 0 c419 3 2124 0 2128 -4 3 -3 -8 -40 -25 -83 -47 -121 -94 -245 -103 -273
-4 -14 -16 -47 -27 -75 -11 -27 -67 -179 -125 -336 -59 -158 -111 -297 -116
-310 -6 -13 -40 -105 -76 -204 -36 -99 -70 -189 -75 -200 -5 -11 -20 -51 -33
-90 -30 -84 -274 -742 -287 -770 -4 -11 -49 -132 -100 -270 -50 -137 -95 -259
-100 -270 -5 -11 -32 -83 -60 -160 -28 -77 -54 -149 -59 -160 -5 -11 -52 -135
-104 -275 -80 -216 -92 -256 -79 -264 59 -34 501 -193 772 -277 339 -106 918
-248 1154 -283 21 -4 48 -8 60 -11 12 -2 37 -7 56 -10 19 -2 46 -7 60 -9 27
-6 301 -44 365 -52 22 -2 56 -6 75 -9 57 -7 201 -21 305 -30 315 -26 414 -29
805 -30 340 0 619 8 718 20 15 2 68 6 117 9 50 4 106 8 125 11 19 2 62 7 95
10 64 6 211 23 260 30 298 42 469 71 724 125 804 168 1607 447 2336 812 576
289 1129 637 1624 1021 64 50 118 93 121 96 3 4 39 33 80 66 41 32 77 61 80
65 3 3 34 30 70 60 36 30 67 57 70 60 3 3 41 37 85 75 97 86 172 155 327 305
l119 116 -71 194 c-39 107 -75 204 -79 215 -21 49 -43 108 -80 210 -21 61 -76
209 -121 330 -127 343 -141 379 -269 727 -67 180 -125 338 -131 350 -9 23
-110 296 -137 371 -20 56 -169 460 -202 547 -16 41 -77 206 -135 365 -59 160
-120 324 -136 365 -16 41 -47 125 -69 185 -21 61 -76 209 -121 330 -188 506
-243 655 -276 745 -19 52 -37 102 -41 110 -3 8 -16 42 -28 75 -21 57 -385
1040 -616 1665 -61 162 -115 309 -122 325 -6 17 -12 32 -13 35 0 3 -4 12 -7
20 -3 8 -36 96 -72 195 -141 383 -271 735 -286 770 -4 11 -33 88 -63 170 -77
211 -305 827 -382 1032 -35 94 -64 175 -64 178 0 4 -6 21 -14 38 -8 18 -62
163 -121 322 -225 610 -306 831 -315 850 -4 11 -56 148 -113 305 -58 157 -155
419 -216 583 -61 164 -111 301 -111 305 0 4 -7 20 -15 35 -8 15 -19 42 -24 60
-5 18 -68 192 -141 387 -72 195 -168 454 -212 575 -45 121 -84 224 -88 228 -4
4 -22 -32 -40 -80z"/>
</g>
</svg>
