<svg width="366" height="79" viewBox="0 0 366 79" fill="none" xmlns="http://www.w3.org/2000/svg">
<path d="M124.312 43L118.552 34.9C117.904 34.972 117.232 35.008 116.536 35.008H109.768V43H107.104V17.8H116.536C119.752 17.8 122.272 18.568 124.096 20.104C125.92 21.64 126.832 23.752 126.832 26.44C126.832 28.408 126.328 30.076 125.32 31.444C124.336 32.788 122.92 33.76 121.072 34.36L127.228 43H124.312ZM116.464 32.74C118.96 32.74 120.868 32.188 122.188 31.084C123.508 29.98 124.168 28.432 124.168 26.44C124.168 24.4 123.508 22.84 122.188 21.76C120.868 20.656 118.96 20.104 116.464 20.104H109.768V32.74H116.464ZM139.028 23.92C141.5 23.92 143.396 24.544 144.716 25.792C146.036 27.016 146.696 28.84 146.696 31.264V43H144.248V40.048C143.672 41.032 142.82 41.8 141.692 42.352C140.588 42.904 139.268 43.18 137.732 43.18C135.62 43.18 133.94 42.676 132.692 41.668C131.444 40.66 130.82 39.328 130.82 37.672C130.82 36.064 131.396 34.768 132.548 33.784C133.724 32.8 135.584 32.308 138.128 32.308H144.14V31.156C144.14 29.524 143.684 28.288 142.772 27.448C141.86 26.584 140.528 26.152 138.776 26.152C137.576 26.152 136.424 26.356 135.32 26.764C134.216 27.148 133.268 27.688 132.476 28.384L131.324 26.476C132.284 25.66 133.436 25.036 134.78 24.604C136.124 24.148 137.54 23.92 139.028 23.92ZM138.128 41.164C139.568 41.164 140.804 40.84 141.836 40.192C142.868 39.52 143.636 38.56 144.14 37.312V34.216H138.2C134.96 34.216 133.34 35.344 133.34 37.6C133.34 38.704 133.76 39.58 134.6 40.228C135.44 40.852 136.616 41.164 138.128 41.164ZM163.286 23.92C165.662 23.92 167.546 24.616 168.938 26.008C170.354 27.376 171.062 29.38 171.062 32.02V43H168.506V32.272C168.506 30.304 168.014 28.804 167.03 27.772C166.046 26.74 164.642 26.224 162.818 26.224C160.778 26.224 159.158 26.836 157.958 28.06C156.782 29.26 156.194 30.928 156.194 33.064V43H153.638V24.064H156.086V27.556C156.782 26.404 157.742 25.516 158.966 24.892C160.214 24.244 161.654 23.92 163.286 23.92ZM185.021 33.496L180.558 37.6V43H178.002V16.288H180.558V34.396L191.862 24.064H195.03L186.93 31.804L195.786 43H192.654L185.021 33.496ZM215.337 34.324H199.497C199.641 36.292 200.397 37.888 201.765 39.112C203.133 40.312 204.861 40.912 206.949 40.912C208.125 40.912 209.205 40.708 210.189 40.3C211.173 39.868 212.025 39.244 212.745 38.428L214.185 40.084C213.345 41.092 212.289 41.86 211.017 42.388C209.769 42.916 208.389 43.18 206.877 43.18C204.933 43.18 203.205 42.772 201.693 41.956C200.205 41.116 199.041 39.964 198.201 38.5C197.361 37.036 196.941 35.38 196.941 33.532C196.941 31.684 197.337 30.028 198.129 28.564C198.945 27.1 200.049 25.96 201.441 25.144C202.857 24.328 204.441 23.92 206.193 23.92C207.945 23.92 209.517 24.328 210.909 25.144C212.301 25.96 213.393 27.1 214.185 28.564C214.977 30.004 215.373 31.66 215.373 33.532L215.337 34.324ZM206.193 26.116C204.369 26.116 202.833 26.704 201.585 27.88C200.361 29.032 199.665 30.544 199.497 32.416H212.925C212.757 30.544 212.049 29.032 210.801 27.88C209.577 26.704 208.041 26.116 206.193 26.116ZM237.856 16.288V43H235.408V39.256C234.64 40.528 233.62 41.5 232.348 42.172C231.1 42.844 229.684 43.18 228.1 43.18C226.324 43.18 224.716 42.772 223.276 41.956C221.836 41.14 220.708 40 219.892 38.536C219.076 37.072 218.668 35.404 218.668 33.532C218.668 31.66 219.076 29.992 219.892 28.528C220.708 27.064 221.836 25.936 223.276 25.144C224.716 24.328 226.324 23.92 228.1 23.92C229.636 23.92 231.016 24.244 232.24 24.892C233.488 25.516 234.508 26.44 235.3 27.664V16.288H237.856ZM228.316 40.912C229.636 40.912 230.824 40.612 231.88 40.012C232.96 39.388 233.8 38.512 234.4 37.384C235.024 36.256 235.336 34.972 235.336 33.532C235.336 32.092 235.024 30.808 234.4 29.68C233.8 28.552 232.96 27.688 231.88 27.088C230.824 26.464 229.636 26.152 228.316 26.152C226.972 26.152 225.76 26.464 224.68 27.088C223.624 27.688 222.784 28.552 222.16 29.68C221.56 30.808 221.26 32.092 221.26 33.532C221.26 34.972 221.56 36.256 222.16 37.384C222.784 38.512 223.624 39.388 224.68 40.012C225.76 40.612 226.972 40.912 228.316 40.912ZM256.458 43.216C253.962 43.216 251.706 42.664 249.69 41.56C247.698 40.456 246.126 38.932 244.974 36.988C243.846 35.02 243.282 32.824 243.282 30.4C243.282 27.976 243.846 25.792 244.974 23.848C246.126 21.88 247.71 20.344 249.726 19.24C251.742 18.136 253.998 17.584 256.494 17.584C258.366 17.584 260.094 17.896 261.678 18.52C263.262 19.144 264.606 20.056 265.71 21.256L264.018 22.948C262.05 20.956 259.566 19.96 256.566 19.96C254.574 19.96 252.762 20.416 251.13 21.328C249.498 22.24 248.214 23.488 247.278 25.072C246.366 26.656 245.91 28.432 245.91 30.4C245.91 32.368 246.366 34.144 247.278 35.728C248.214 37.312 249.498 38.56 251.13 39.472C252.762 40.384 254.574 40.84 256.566 40.84C259.59 40.84 262.074 39.832 264.018 37.816L265.71 39.508C264.606 40.708 263.25 41.632 261.642 42.28C260.058 42.904 258.33 43.216 256.458 43.216ZM280.497 23.92C282.873 23.92 284.757 24.616 286.149 26.008C287.565 27.376 288.273 29.38 288.273 32.02V43H285.717V32.272C285.717 30.304 285.225 28.804 284.241 27.772C283.257 26.74 281.853 26.224 280.029 26.224C277.989 26.224 276.369 26.836 275.169 28.06C273.993 29.26 273.405 30.928 273.405 33.064V43H270.849V16.288H273.405V27.376C274.101 26.272 275.061 25.42 276.285 24.82C277.509 24.22 278.913 23.92 280.497 23.92ZM303.023 43.18C301.199 43.18 299.555 42.772 298.091 41.956C296.627 41.116 295.475 39.964 294.635 38.5C293.795 37.036 293.375 35.38 293.375 33.532C293.375 31.684 293.795 30.028 294.635 28.564C295.475 27.1 296.627 25.96 298.091 25.144C299.555 24.328 301.199 23.92 303.023 23.92C304.847 23.92 306.491 24.328 307.955 25.144C309.419 25.96 310.559 27.1 311.375 28.564C312.215 30.028 312.635 31.684 312.635 33.532C312.635 35.38 312.215 37.036 311.375 38.5C310.559 39.964 309.419 41.116 307.955 41.956C306.491 42.772 304.847 43.18 303.023 43.18ZM303.023 40.912C304.367 40.912 305.567 40.612 306.623 40.012C307.703 39.388 308.543 38.512 309.143 37.384C309.743 36.256 310.043 34.972 310.043 33.532C310.043 32.092 309.743 30.808 309.143 29.68C308.543 28.552 307.703 27.688 306.623 27.088C305.567 26.464 304.367 26.152 303.023 26.152C301.679 26.152 300.467 26.464 299.387 27.088C298.331 27.688 297.491 28.552 296.867 29.68C296.267 30.808 295.967 32.092 295.967 33.532C295.967 34.972 296.267 36.256 296.867 37.384C297.491 38.512 298.331 39.388 299.387 40.012C300.467 40.612 301.679 40.912 303.023 40.912ZM317.853 24.064H320.409V43H317.853V24.064ZM319.149 19.924C318.621 19.924 318.177 19.744 317.817 19.384C317.457 19.024 317.277 18.592 317.277 18.088C317.277 17.608 317.457 17.188 317.817 16.828C318.177 16.468 318.621 16.288 319.149 16.288C319.677 16.288 320.121 16.468 320.481 16.828C320.841 17.164 321.021 17.572 321.021 18.052C321.021 18.58 320.841 19.024 320.481 19.384C320.121 19.744 319.677 19.924 319.149 19.924ZM335.369 43.18C333.497 43.18 331.817 42.772 330.329 41.956C328.865 41.14 327.713 40 326.873 38.536C326.033 37.048 325.613 35.38 325.613 33.532C325.613 31.684 326.033 30.028 326.873 28.564C327.713 27.1 328.865 25.96 330.329 25.144C331.817 24.328 333.497 23.92 335.369 23.92C337.001 23.92 338.453 24.244 339.725 24.892C341.021 25.516 342.041 26.44 342.785 27.664L340.877 28.96C340.253 28.024 339.461 27.328 338.501 26.872C337.541 26.392 336.497 26.152 335.369 26.152C334.001 26.152 332.765 26.464 331.661 27.088C330.581 27.688 329.729 28.552 329.105 29.68C328.505 30.808 328.205 32.092 328.205 33.532C328.205 34.996 328.505 36.292 329.105 37.42C329.729 38.524 330.581 39.388 331.661 40.012C332.765 40.612 334.001 40.912 335.369 40.912C336.497 40.912 337.541 40.684 338.501 40.228C339.461 39.772 340.253 39.076 340.877 38.14L342.785 39.436C342.041 40.66 341.021 41.596 339.725 42.244C338.429 42.868 336.977 43.18 335.369 43.18ZM363.978 34.324H348.138C348.282 36.292 349.038 37.888 350.406 39.112C351.774 40.312 353.502 40.912 355.59 40.912C356.766 40.912 357.846 40.708 358.83 40.3C359.814 39.868 360.666 39.244 361.386 38.428L362.826 40.084C361.986 41.092 360.93 41.86 359.658 42.388C358.41 42.916 357.03 43.18 355.518 43.18C353.574 43.18 351.846 42.772 350.334 41.956C348.846 41.116 347.682 39.964 346.842 38.5C346.002 37.036 345.582 35.38 345.582 33.532C345.582 31.684 345.978 30.028 346.77 28.564C347.586 27.1 348.69 25.96 350.082 25.144C351.498 24.328 353.082 23.92 354.834 23.92C356.586 23.92 358.158 24.328 359.55 25.144C360.942 25.96 362.034 27.1 362.826 28.564C363.618 30.004 364.014 31.66 364.014 33.532L363.978 34.324ZM354.834 26.116C353.01 26.116 351.474 26.704 350.226 27.88C349.002 29.032 348.306 30.544 348.138 32.416H361.566C361.398 30.544 360.69 29.032 359.442 27.88C358.218 26.704 356.682 26.116 354.834 26.116Z" fill="black"/>
<path d="M113.88 62.224C114.616 62.384 115.181 62.704 115.576 63.184C115.981 63.6533 116.184 64.2613 116.184 65.008C116.184 65.968 115.827 66.7093 115.112 67.232C114.408 67.744 113.363 68 111.976 68H106.824V56.8H111.656C112.904 56.8 113.869 57.0507 114.552 57.552C115.245 58.0533 115.592 58.7627 115.592 59.68C115.592 60.2987 115.437 60.8267 115.128 61.264C114.829 61.6907 114.413 62.0107 113.88 62.224ZM108.008 57.776V61.84H111.576C112.483 61.84 113.181 61.6693 113.672 61.328C114.163 60.976 114.408 60.4693 114.408 59.808C114.408 59.1467 114.163 58.6453 113.672 58.304C113.181 57.952 112.483 57.776 111.576 57.776H108.008ZM111.96 67.024C112.963 67.024 113.72 66.8533 114.232 66.512C114.744 66.1707 115 65.6373 115 64.912C115 63.5147 113.987 62.816 111.96 62.816H108.008V67.024H111.96ZM125.975 64.144H118.935C118.999 65.0187 119.335 65.728 119.943 66.272C120.551 66.8053 121.319 67.072 122.247 67.072C122.769 67.072 123.249 66.9813 123.687 66.8C124.124 66.608 124.503 66.3307 124.823 65.968L125.463 66.704C125.089 67.152 124.62 67.4933 124.055 67.728C123.5 67.9627 122.887 68.08 122.215 68.08C121.351 68.08 120.583 67.8987 119.911 67.536C119.249 67.1627 118.732 66.6507 118.359 66C117.985 65.3493 117.799 64.6133 117.799 63.792C117.799 62.9707 117.975 62.2347 118.327 61.584C118.689 60.9333 119.18 60.4267 119.799 60.064C120.428 59.7013 121.132 59.52 121.911 59.52C122.689 59.52 123.388 59.7013 124.007 60.064C124.625 60.4267 125.111 60.9333 125.463 61.584C125.815 62.224 125.991 62.96 125.991 63.792L125.975 64.144ZM121.911 60.496C121.1 60.496 120.417 60.7573 119.863 61.28C119.319 61.792 119.009 62.464 118.935 63.296H124.903C124.828 62.464 124.513 61.792 123.959 61.28C123.415 60.7573 122.732 60.496 121.911 60.496ZM130.559 68.08C129.876 68.08 129.22 67.984 128.591 67.792C127.972 67.5893 127.487 67.3387 127.135 67.04L127.647 66.144C127.999 66.4213 128.441 66.6507 128.975 66.832C129.508 67.0027 130.063 67.088 130.639 67.088C131.407 67.088 131.972 66.9707 132.335 66.736C132.708 66.4907 132.895 66.1493 132.895 65.712C132.895 65.4027 132.793 65.1627 132.591 64.992C132.388 64.8107 132.132 64.6773 131.823 64.592C131.513 64.496 131.103 64.4053 130.591 64.32C129.908 64.192 129.359 64.064 128.943 63.936C128.527 63.7973 128.169 63.568 127.871 63.248C127.583 62.928 127.439 62.4853 127.439 61.92C127.439 61.216 127.732 60.64 128.319 60.192C128.905 59.744 129.721 59.52 130.767 59.52C131.311 59.52 131.855 59.5947 132.399 59.744C132.943 59.8827 133.391 60.0693 133.743 60.304L133.247 61.216C132.553 60.736 131.727 60.496 130.767 60.496C130.041 60.496 129.492 60.624 129.119 60.88C128.756 61.136 128.575 61.472 128.575 61.888C128.575 62.208 128.676 62.464 128.879 62.656C129.092 62.848 129.353 62.992 129.663 63.088C129.972 63.1733 130.399 63.264 130.943 63.36C131.615 63.488 132.153 63.616 132.559 63.744C132.964 63.872 133.311 64.0907 133.599 64.4C133.887 64.7093 134.031 65.136 134.031 65.68C134.031 66.416 133.721 67.0027 133.103 67.44C132.495 67.8667 131.647 68.08 130.559 68.08ZM140.563 67.488C140.35 67.68 140.083 67.8293 139.763 67.936C139.454 68.032 139.128 68.08 138.787 68.08C137.998 68.08 137.39 67.8667 136.963 67.44C136.536 67.0133 136.323 66.4107 136.323 65.632V60.544H134.819V59.584H136.323V57.744H137.459V59.584H140.019V60.544H137.459V65.568C137.459 66.0693 137.582 66.4533 137.827 66.72C138.083 66.976 138.446 67.104 138.915 67.104C139.15 67.104 139.374 67.0667 139.587 66.992C139.811 66.9173 140.003 66.8107 140.163 66.672L140.563 67.488ZM150.306 68.08C149.474 68.08 148.728 67.8987 148.066 67.536C147.416 67.1733 146.904 66.6667 146.53 66.016C146.157 65.3547 145.97 64.6133 145.97 63.792C145.97 62.9707 146.157 62.2347 146.53 61.584C146.904 60.9333 147.416 60.4267 148.066 60.064C148.728 59.7013 149.474 59.52 150.306 59.52C151.032 59.52 151.677 59.664 152.242 59.952C152.818 60.2293 153.272 60.64 153.602 61.184L152.754 61.76C152.477 61.344 152.125 61.0347 151.698 60.832C151.272 60.6187 150.808 60.512 150.306 60.512C149.698 60.512 149.149 60.6507 148.658 60.928C148.178 61.1947 147.8 61.5787 147.522 62.08C147.256 62.5813 147.122 63.152 147.122 63.792C147.122 64.4427 147.256 65.0187 147.522 65.52C147.8 66.0107 148.178 66.3947 148.658 66.672C149.149 66.9387 149.698 67.072 150.306 67.072C150.808 67.072 151.272 66.9707 151.698 66.768C152.125 66.5653 152.477 66.256 152.754 65.84L153.602 66.416C153.272 66.96 152.818 67.376 152.242 67.664C151.666 67.9413 151.021 68.08 150.306 68.08ZM155.709 56.128H156.845V68H155.709V56.128ZM163.446 68.08C162.635 68.08 161.905 67.8987 161.254 67.536C160.603 67.1627 160.091 66.6507 159.718 66C159.345 65.3493 159.158 64.6133 159.158 63.792C159.158 62.9707 159.345 62.2347 159.718 61.584C160.091 60.9333 160.603 60.4267 161.254 60.064C161.905 59.7013 162.635 59.52 163.446 59.52C164.257 59.52 164.987 59.7013 165.638 60.064C166.289 60.4267 166.795 60.9333 167.158 61.584C167.531 62.2347 167.718 62.9707 167.718 63.792C167.718 64.6133 167.531 65.3493 167.158 66C166.795 66.6507 166.289 67.1627 165.638 67.536C164.987 67.8987 164.257 68.08 163.446 68.08ZM163.446 67.072C164.043 67.072 164.577 66.9387 165.046 66.672C165.526 66.3947 165.899 66.0053 166.166 65.504C166.433 65.0027 166.566 64.432 166.566 63.792C166.566 63.152 166.433 62.5813 166.166 62.08C165.899 61.5787 165.526 61.1947 165.046 60.928C164.577 60.6507 164.043 60.512 163.446 60.512C162.849 60.512 162.31 60.6507 161.83 60.928C161.361 61.1947 160.987 61.5787 160.71 62.08C160.443 62.5813 160.31 63.152 160.31 63.792C160.31 64.432 160.443 65.0027 160.71 65.504C160.987 66.0053 161.361 66.3947 161.83 66.672C162.31 66.9387 162.849 67.072 163.446 67.072ZM174.469 67.488C174.256 67.68 173.989 67.8293 173.669 67.936C173.36 68.032 173.034 68.08 172.693 68.08C171.904 68.08 171.296 67.8667 170.869 67.44C170.442 67.0133 170.229 66.4107 170.229 65.632V60.544H168.725V59.584H170.229V57.744H171.365V59.584H173.925V60.544H171.365V65.568C171.365 66.0693 171.488 66.4533 171.733 66.72C171.989 66.976 172.352 67.104 172.821 67.104C173.056 67.104 173.28 67.0667 173.493 66.992C173.717 66.9173 173.909 66.8107 174.069 66.672L174.469 67.488ZM180.825 59.52C181.881 59.52 182.718 59.8293 183.337 60.448C183.966 61.056 184.281 61.9467 184.281 63.12V68H183.145V63.232C183.145 62.3573 182.926 61.6907 182.489 61.232C182.052 60.7733 181.428 60.544 180.617 60.544C179.71 60.544 178.99 60.816 178.457 61.36C177.934 61.8933 177.673 62.6347 177.673 63.584V68H176.537V56.128H177.673V61.056C177.982 60.5653 178.409 60.1867 178.953 59.92C179.497 59.6533 180.121 59.52 180.825 59.52ZM194.725 64.144H187.685C187.749 65.0187 188.085 65.728 188.693 66.272C189.301 66.8053 190.069 67.072 190.997 67.072C191.519 67.072 191.999 66.9813 192.437 66.8C192.874 66.608 193.253 66.3307 193.573 65.968L194.213 66.704C193.839 67.152 193.37 67.4933 192.805 67.728C192.25 67.9627 191.637 68.08 190.965 68.08C190.101 68.08 189.333 67.8987 188.661 67.536C187.999 67.1627 187.482 66.6507 187.109 66C186.735 65.3493 186.549 64.6133 186.549 63.792C186.549 62.9707 186.725 62.2347 187.077 61.584C187.439 60.9333 187.93 60.4267 188.549 60.064C189.178 59.7013 189.882 59.52 190.661 59.52C191.439 59.52 192.138 59.7013 192.757 60.064C193.375 60.4267 193.861 60.9333 194.213 61.584C194.565 62.224 194.741 62.96 194.741 63.792L194.725 64.144ZM190.661 60.496C189.85 60.496 189.167 60.7573 188.613 61.28C188.069 61.792 187.759 62.464 187.685 63.296H193.653C193.578 62.464 193.263 61.792 192.709 61.28C192.165 60.7573 191.482 60.496 190.661 60.496ZM199.309 68.08C198.626 68.08 197.97 67.984 197.341 67.792C196.722 67.5893 196.237 67.3387 195.885 67.04L196.397 66.144C196.749 66.4213 197.191 66.6507 197.725 66.832C198.258 67.0027 198.813 67.088 199.389 67.088C200.157 67.088 200.722 66.9707 201.085 66.736C201.458 66.4907 201.645 66.1493 201.645 65.712C201.645 65.4027 201.543 65.1627 201.341 64.992C201.138 64.8107 200.882 64.6773 200.573 64.592C200.263 64.496 199.853 64.4053 199.341 64.32C198.658 64.192 198.109 64.064 197.693 63.936C197.277 63.7973 196.919 63.568 196.621 63.248C196.333 62.928 196.189 62.4853 196.189 61.92C196.189 61.216 196.482 60.64 197.069 60.192C197.655 59.744 198.471 59.52 199.517 59.52C200.061 59.52 200.605 59.5947 201.149 59.744C201.693 59.8827 202.141 60.0693 202.493 60.304L201.997 61.216C201.303 60.736 200.477 60.496 199.517 60.496C198.791 60.496 198.242 60.624 197.869 60.88C197.506 61.136 197.325 61.472 197.325 61.888C197.325 62.208 197.426 62.464 197.629 62.656C197.842 62.848 198.103 62.992 198.413 63.088C198.722 63.1733 199.149 63.264 199.693 63.36C200.365 63.488 200.903 63.616 201.309 63.744C201.714 63.872 202.061 64.0907 202.349 64.4C202.637 64.7093 202.781 65.136 202.781 65.68C202.781 66.416 202.471 67.0027 201.853 67.44C201.245 67.8667 200.397 68.08 199.309 68.08ZM212.556 68.08C211.724 68.08 210.978 67.8987 210.316 67.536C209.666 67.1733 209.154 66.6667 208.78 66.016C208.407 65.3547 208.22 64.6133 208.22 63.792C208.22 62.9707 208.407 62.2347 208.78 61.584C209.154 60.9333 209.666 60.4267 210.316 60.064C210.978 59.7013 211.724 59.52 212.556 59.52C213.282 59.52 213.927 59.664 214.492 59.952C215.068 60.2293 215.522 60.64 215.852 61.184L215.004 61.76C214.727 61.344 214.375 61.0347 213.948 60.832C213.522 60.6187 213.058 60.512 212.556 60.512C211.948 60.512 211.399 60.6507 210.908 60.928C210.428 61.1947 210.05 61.5787 209.772 62.08C209.506 62.5813 209.372 63.152 209.372 63.792C209.372 64.4427 209.506 65.0187 209.772 65.52C210.05 66.0107 210.428 66.3947 210.908 66.672C211.399 66.9387 211.948 67.072 212.556 67.072C213.058 67.072 213.522 66.9707 213.948 66.768C214.375 66.5653 214.727 66.256 215.004 65.84L215.852 66.416C215.522 66.96 215.068 67.376 214.492 67.664C213.916 67.9413 213.271 68.08 212.556 68.08ZM221.383 68.08C220.573 68.08 219.842 67.8987 219.191 67.536C218.541 67.1627 218.029 66.6507 217.655 66C217.282 65.3493 217.095 64.6133 217.095 63.792C217.095 62.9707 217.282 62.2347 217.655 61.584C218.029 60.9333 218.541 60.4267 219.191 60.064C219.842 59.7013 220.573 59.52 221.383 59.52C222.194 59.52 222.925 59.7013 223.575 60.064C224.226 60.4267 224.733 60.9333 225.095 61.584C225.469 62.2347 225.655 62.9707 225.655 63.792C225.655 64.6133 225.469 65.3493 225.095 66C224.733 66.6507 224.226 67.1627 223.575 67.536C222.925 67.8987 222.194 68.08 221.383 68.08ZM221.383 67.072C221.981 67.072 222.514 66.9387 222.983 66.672C223.463 66.3947 223.837 66.0053 224.103 65.504C224.37 65.0027 224.503 64.432 224.503 63.792C224.503 63.152 224.37 62.5813 224.103 62.08C223.837 61.5787 223.463 61.1947 222.983 60.928C222.514 60.6507 221.981 60.512 221.383 60.512C220.786 60.512 220.247 60.6507 219.767 60.928C219.298 61.1947 218.925 61.5787 218.647 62.08C218.381 62.5813 218.247 63.152 218.247 63.792C218.247 64.432 218.381 65.0027 218.647 65.504C218.925 66.0053 219.298 66.3947 219.767 66.672C220.247 66.9387 220.786 67.072 221.383 67.072ZM227.975 56.128H229.111V68H227.975V56.128ZM232.272 56.128H233.408V68H232.272V56.128ZM243.896 64.144H236.856C236.92 65.0187 237.256 65.728 237.864 66.272C238.472 66.8053 239.24 67.072 240.168 67.072C240.691 67.072 241.171 66.9813 241.608 66.8C242.046 66.608 242.424 66.3307 242.744 65.968L243.384 66.704C243.011 67.152 242.542 67.4933 241.976 67.728C241.422 67.9627 240.808 68.08 240.136 68.08C239.272 68.08 238.504 67.8987 237.832 67.536C237.171 67.1627 236.654 66.6507 236.28 66C235.907 65.3493 235.72 64.6133 235.72 63.792C235.72 62.9707 235.896 62.2347 236.248 61.584C236.611 60.9333 237.102 60.4267 237.72 60.064C238.35 59.7013 239.054 59.52 239.832 59.52C240.611 59.52 241.31 59.7013 241.928 60.064C242.547 60.4267 243.032 60.9333 243.384 61.584C243.736 62.224 243.912 62.96 243.912 63.792L243.896 64.144ZM239.832 60.496C239.022 60.496 238.339 60.7573 237.784 61.28C237.24 61.792 236.931 62.464 236.856 63.296H242.824C242.75 62.464 242.435 61.792 241.88 61.28C241.336 60.7573 240.654 60.496 239.832 60.496ZM249.713 68.08C248.881 68.08 248.134 67.8987 247.473 67.536C246.822 67.1733 246.31 66.6667 245.937 66.016C245.563 65.3547 245.377 64.6133 245.377 63.792C245.377 62.9707 245.563 62.2347 245.937 61.584C246.31 60.9333 246.822 60.4267 247.473 60.064C248.134 59.7013 248.881 59.52 249.713 59.52C250.438 59.52 251.083 59.664 251.649 59.952C252.225 60.2293 252.678 60.64 253.009 61.184L252.161 61.76C251.883 61.344 251.531 61.0347 251.105 60.832C250.678 60.6187 250.214 60.512 249.713 60.512C249.105 60.512 248.555 60.6507 248.065 60.928C247.585 61.1947 247.206 61.5787 246.929 62.08C246.662 62.5813 246.529 63.152 246.529 63.792C246.529 64.4427 246.662 65.0187 246.929 65.52C247.206 66.0107 247.585 66.3947 248.065 66.672C248.555 66.9387 249.105 67.072 249.713 67.072C250.214 67.072 250.678 66.9707 251.105 66.768C251.531 66.5653 251.883 66.256 252.161 65.84L253.009 66.416C252.678 66.96 252.225 67.376 251.649 67.664C251.073 67.9413 250.427 68.08 249.713 68.08ZM259.766 67.488C259.553 67.68 259.286 67.8293 258.966 67.936C258.657 68.032 258.331 68.08 257.99 68.08C257.201 68.08 256.593 67.8667 256.166 67.44C255.739 67.0133 255.526 66.4107 255.526 65.632V60.544H254.022V59.584H255.526V57.744H256.662V59.584H259.222V60.544H256.662V65.568C256.662 66.0693 256.785 66.4533 257.03 66.72C257.286 66.976 257.649 67.104 258.118 67.104C258.353 67.104 258.577 67.0667 258.79 66.992C259.014 66.9173 259.206 66.8107 259.366 66.672L259.766 67.488ZM261.834 59.584H262.97V68H261.834V59.584ZM262.41 57.744C262.175 57.744 261.978 57.664 261.818 57.504C261.658 57.344 261.578 57.152 261.578 56.928C261.578 56.7147 261.658 56.528 261.818 56.368C261.978 56.208 262.175 56.128 262.41 56.128C262.645 56.128 262.842 56.208 263.002 56.368C263.162 56.5173 263.242 56.6987 263.242 56.912C263.242 57.1467 263.162 57.344 263.002 57.504C262.842 57.664 262.645 57.744 262.41 57.744ZM269.571 68.08C268.76 68.08 268.03 67.8987 267.379 67.536C266.728 67.1627 266.216 66.6507 265.843 66C265.47 65.3493 265.283 64.6133 265.283 63.792C265.283 62.9707 265.47 62.2347 265.843 61.584C266.216 60.9333 266.728 60.4267 267.379 60.064C268.03 59.7013 268.76 59.52 269.571 59.52C270.382 59.52 271.112 59.7013 271.763 60.064C272.414 60.4267 272.92 60.9333 273.283 61.584C273.656 62.2347 273.843 62.9707 273.843 63.792C273.843 64.6133 273.656 65.3493 273.283 66C272.92 66.6507 272.414 67.1627 271.763 67.536C271.112 67.8987 270.382 68.08 269.571 68.08ZM269.571 67.072C270.168 67.072 270.702 66.9387 271.171 66.672C271.651 66.3947 272.024 66.0053 272.291 65.504C272.558 65.0027 272.691 64.432 272.691 63.792C272.691 63.152 272.558 62.5813 272.291 62.08C272.024 61.5787 271.651 61.1947 271.171 60.928C270.702 60.6507 270.168 60.512 269.571 60.512C268.974 60.512 268.435 60.6507 267.955 60.928C267.486 61.1947 267.112 61.5787 266.835 62.08C266.568 62.5813 266.435 63.152 266.435 63.792C266.435 64.432 266.568 65.0027 266.835 65.504C267.112 66.0053 267.486 66.3947 267.955 66.672C268.435 66.9387 268.974 67.072 269.571 67.072ZM280.45 59.52C281.506 59.52 282.343 59.8293 282.962 60.448C283.591 61.056 283.906 61.9467 283.906 63.12V68H282.77V63.232C282.77 62.3573 282.551 61.6907 282.114 61.232C281.677 60.7733 281.053 60.544 280.242 60.544C279.335 60.544 278.615 60.816 278.082 61.36C277.559 61.8933 277.298 62.6347 277.298 63.584V68H276.162V59.584H277.25V61.136C277.559 60.624 277.986 60.2293 278.53 59.952C279.085 59.664 279.725 59.52 280.45 59.52ZM289.246 68.08C288.564 68.08 287.908 67.984 287.278 67.792C286.66 67.5893 286.174 67.3387 285.822 67.04L286.334 66.144C286.686 66.4213 287.129 66.6507 287.662 66.832C288.196 67.0027 288.75 67.088 289.326 67.088C290.094 67.088 290.66 66.9707 291.022 66.736C291.396 66.4907 291.582 66.1493 291.582 65.712C291.582 65.4027 291.481 65.1627 291.278 64.992C291.076 64.8107 290.82 64.6773 290.51 64.592C290.201 64.496 289.79 64.4053 289.278 64.32C288.596 64.192 288.046 64.064 287.63 63.936C287.214 63.7973 286.857 63.568 286.558 63.248C286.27 62.928 286.126 62.4853 286.126 61.92C286.126 61.216 286.42 60.64 287.006 60.192C287.593 59.744 288.409 59.52 289.454 59.52C289.998 59.52 290.542 59.5947 291.086 59.744C291.63 59.8827 292.078 60.0693 292.43 60.304L291.934 61.216C291.241 60.736 290.414 60.496 289.454 60.496C288.729 60.496 288.18 60.624 287.806 60.88C287.444 61.136 287.262 61.472 287.262 61.888C287.262 62.208 287.364 62.464 287.566 62.656C287.78 62.848 288.041 62.992 288.35 63.088C288.66 63.1733 289.086 63.264 289.63 63.36C290.302 63.488 290.841 63.616 291.246 63.744C291.652 63.872 291.998 64.0907 292.286 64.4C292.574 64.7093 292.718 65.136 292.718 65.68C292.718 66.416 292.409 67.0027 291.79 67.44C291.182 67.8667 290.334 68.08 289.246 68.08Z" fill="black" fill-opacity="0.5"/>
<path d="M107 50.5H364" stroke="black" stroke-opacity="0.3"/>
<path d="M84.888 62L74.648 47.6C73.496 47.728 72.3013 47.792 71.064 47.792H59.032V62H54.296V17.2H71.064C76.7813 17.2 81.2613 18.5653 84.504 21.296C87.7467 24.0267 89.368 27.7813 89.368 32.56C89.368 36.0587 88.472 39.024 86.68 41.456C84.9307 43.8453 82.4133 45.5733 79.128 46.64L90.072 62H84.888ZM70.936 43.76C75.3733 43.76 78.7653 42.7787 81.112 40.816C83.4587 38.8533 84.632 36.1013 84.632 32.56C84.632 28.9333 83.4587 26.16 81.112 24.24C78.7653 22.2773 75.3733 21.296 70.936 21.296H59.032V43.76H70.936Z" fill="black"/>
<path d="M20.248 16.616C24.6853 16.616 28.696 17.5973 32.28 19.56C35.8213 21.5227 38.616 24.232 40.664 27.688C42.6693 31.1867 43.672 35.0907 43.672 39.4C43.672 43.7093 42.6693 47.592 40.664 51.048C38.616 54.5467 35.8 57.2773 32.216 59.24C28.632 61.2027 24.6213 62.184 20.184 62.184C16.856 62.184 13.784 61.6293 10.968 60.52C8.152 59.4107 5.76267 57.7893 3.8 55.656L6.808 52.648C10.3067 56.1893 14.7227 57.96 20.056 57.96C23.5973 57.96 26.8187 57.1493 29.72 55.528C32.6213 53.9067 34.904 51.688 36.568 48.872C38.1893 46.056 39 42.8987 39 39.4C39 35.9013 38.1893 32.744 36.568 29.928C34.904 27.112 32.6213 24.8933 29.72 23.272C26.8187 21.6507 23.5973 20.84 20.056 20.84C14.68 20.84 10.264 22.632 6.808 26.216L3.8 23.208C5.76267 21.0747 8.17333 19.432 11.032 18.28C13.848 17.1707 16.92 16.616 20.248 16.616Z" fill="#FF0000"/>
<path d="M20.5 27L23.0819 34.9463H31.4371L24.6776 39.8574L27.2595 47.8037L20.5 42.8926L13.7405 47.8037L16.3224 39.8574L9.56285 34.9463H17.9181L20.5 27Z" fill="black" fill-opacity="0.3"/>
</svg>
